<?xml version="1.0" encoding="UTF-8" standalone="no"?>
<!-- Created with Inkscape (http://www.inkscape.org/) -->
<svg
   xmlns:dc="http://purl.org/dc/elements/1.1/"
   xmlns:cc="http://web.resource.org/cc/"
   xmlns:rdf="http://www.w3.org/1999/02/22-rdf-syntax-ns#"
   xmlns:svg="http://www.w3.org/2000/svg"
   xmlns="http://www.w3.org/2000/svg"
   xmlns:sodipodi="http://sodipodi.sourceforge.net/DTD/sodipodi-0.dtd"
   xmlns:inkscape="http://www.inkscape.org/namespaces/inkscape"
   id="svg2"
   sodipodi:version="0.32"
   inkscape:version="0.45.1"
   width="376"
   height="446"
   version="1.0"
   sodipodi:docbase="/home/liftarn/Bilder"
   sodipodi:docname="WinkingRat.svg"
   inkscape:output_extension="org.inkscape.output.svg.inkscape">
  <metadata
     id="metadata7">
    <rdf:RDF>
      <cc:Work
         rdf:about="">
        <dc:format>image/svg+xml</dc:format>
        <dc:type
           rdf:resource="http://purl.org/dc/dcmitype/StillImage" />
      </cc:Work>
    </rdf:RDF>
  </metadata>
  <defs
     id="defs5" />
  <sodipodi:namedview
     inkscape:window-height="693"
     inkscape:window-width="1024"
     inkscape:pageshadow="2"
     inkscape:pageopacity="0.0"
     guidetolerance="10.0"
     gridtolerance="10.0"
     objecttolerance="10.0"
     borderopacity="1.0"
     bordercolor="#666666"
     pagecolor="#ffffff"
     id="base"
     inkscape:zoom="0.91255605"
     inkscape:cx="188"
     inkscape:cy="223"
     inkscape:window-x="0"
     inkscape:window-y="49"
     inkscape:current-layer="svg2" />
  <path
     style="fill:#00000033"
     d="M 167,444.92429 C 155.52407,443.23882 147.98862,438.66303 133.83548,424.78562 C 126.94413,418.02853 120.21187,410.98346 118.8749,409.12991 L 116.44405,405.75982 L 97.472026,412.037 C 77.134724,418.76589 71.5,419.77003 71.5,416.66537 C 71.5,415.16954 74.823985,413.75518 89.5,409.00635 C 99.4,405.80293 108.72268,402.70778 110.21706,402.12825 L 112.93413,401.07455 L 109.56185,395.95401 C 107.7071,393.13771 105.13442,388.79474 103.84479,386.30296 L 101.5,381.77246 L 90.143033,382.39675 C 58.804066,384.11944 46.305844,384.30388 45.534036,383.05507 C 43.638064,379.98732 47.459744,379.28765 72.428331,378.13123 C 86.138914,377.49622 97.531286,376.80205 97.744714,376.58862 C 97.958143,376.37519 96.820829,373.34294 95.21735,369.85028 C 93.613871,366.35763 91.472491,361.43858 90.458728,358.91906 L 88.615523,354.33813 L 51.683299,347.91906 C 15.152542,341.56978 11.924368,340.67563 14.875918,337.72408 C 16.092899,336.5071 20.452236,337.13022 64.710299,344.8474 C 90.886117,349.41161 90.130631,350.16601 75.103016,334.46962 C 50.181593,308.43911 37.053068,278.60592 33.848117,240.72222 C 31.77651,216.23507 35.688675,183.9137 43.981821,157 C 46.569095,148.60353 46.569834,148.6094 42.75,147.21762 C 37.855771,145.43438 27.306899,138.23561 22.802146,133.60479 C 13.830246,124.3818 7.0021882,111.6107 2.7750615,96.146417 C 1.0508447,89.83864 0.6833052,85.611384 0.67564732,72 C 0.66718215,56.953726 0.90212683,54.72498 3.3423033,46.703414 C 8.1276696,30.972531 14.876351,20.036534 26.452842,9.2536157 C 34.548722,1.7127108 37.201667,0.51623911 45.5,0.66339354 C 58.933697,0.90161343 72.928286,9.7142136 94.817661,31.719455 L 109.13532,46.112904 L 113.31766,44.109518 C 122.02769,39.937318 137.91935,34.822766 149.98445,32.308726 C 160.78068,30.059082 164.90405,29.706409 180,29.741486 C 206.51639,29.803099 224.77081,33.558095 252,44.552125 C 266.41825,50.373625 269.6843,50.876856 277.6656,48.506664 C 285.0039,46.327425 302.14664,37.365825 313.91221,29.558258 L 324.15757,22.759494 L 330.06058,23.427344 C 359.89641,26.802885 378.0023,53.418709 375.63898,90.428036 C 374.87877,102.33274 373.20299,109.91958 368.99254,120.51878 C 359.99058,143.17991 342.10817,160.55207 321.66621,166.4947 C 317.14644,167.80864 316.02805,168.52211 316.43348,169.8329 C 316.71708,170.7498 318.13145,178.475 319.57653,187 C 322.78308,205.91659 324.03182,241.62952 322.04942,257.7228 C 318.61077,285.63797 310.52595,308.19935 297.23032,326.98253 C 291.7748,334.68973 275.4958,351.17513 271.09166,353.4526 C 266.75904,355.69308 267.10226,357.39438 271.75,356.71594 C 273.8125,356.41488 294.17156,352.73862 316.99235,348.54648 C 339.81314,344.35435 359.38814,341.05392 360.49235,341.21221 C 361.72617,341.38907 362.5,342.25973 362.5,343.47107 C 362.5,345.27201 359.56534,345.97846 328.5,351.65584 C 266.07887,363.06367 265.89255,363.10262 265.28545,364.86793 C 264.97675,365.76557 263.46382,369.425 261.9234,373 L 259.12263,379.5 L 262.31131,380.13621 C 264.06509,380.48612 281.18855,382.71984 300.36343,385.10002 C 335.33775,389.4414 338.26995,390.13005 335.13382,393.26618 C 334.2915,394.1085 324.10531,393.15722 295.30192,389.54631 C 268.37609,386.17078 256.48916,385.03251 256.23166,385.80502 C 256.0281,386.41569 253.49121,390.69086 250.59411,395.30539 L 245.32667,403.69546 L 265.41333,412.7932 C 280.66456,419.70084 285.5,422.32204 285.5,423.68177 C 285.5,427.49782 281.96225,426.43837 259,415.74582 C 254.875,413.82498 249.37822,411.32863 246.78494,410.19838 L 242.06989,408.14338 L 237.02213,414.56653 C 226.83557,427.52867 219.40899,434.52105 211.76559,438.34643 C 207.76952,440.34638 201.8915,442.64244 198.70334,443.44878 C 191.07333,445.37854 175.14149,446.12003 167,444.92429 z M 198.08216,430.09592 C 201.70234,428.95599 206.4925,426.78058 208.72695,425.26166 C 212.65225,422.59336 225.70603,408.88909 228.77711,404.21237 C 230.14501,402.12928 230.11037,401.8 228.38967,400.52969 C 225.77022,398.59588 227.84335,396.31061 230.78764,397.88635 C 232.26359,398.67625 233.04984,398.63489 233.77843,397.72899 C 234.98741,396.22578 243,383.09963 243,382.62229 C 243,382.43392 240.4609,382.01775 237.35755,381.69745 C 231.2715,381.06932 228.87527,379.72473 230.66045,377.93955 C 231.38111,377.21889 233.89063,377.16981 238.49261,377.78639 L 245.26433,378.69367 L 248.13216,372.36879 C 249.70947,368.89011 251,365.8631 251,365.6421 C 251,365.4211 247.56303,365.88924 243.36229,366.68243 C 237.97192,367.70023 235.412,367.812 234.66229,367.06229 C 232.84877,365.24877 235.12406,364.12425 244.02236,362.43627 C 248.67772,361.55317 252.82037,360.30624 253.22825,359.66531 C 253.63613,359.02439 254.65821,356.15811 255.49955,353.2958 C 256.88629,348.57795 257.89233,347.39281 266.26462,340.61432 C 276.05458,332.68804 281.1165,327.24153 288.31794,316.88546 C 310.61173,284.82574 316.40583,234.4578 304.51582,176.07769 C 303.13212,169.28369 302,163.1617 302,162.47327 C 302,159.32992 305.66573,156.88605 312.5,155.47313 C 332.86683,151.26245 349.39606,136.08368 357.62534,114.03457 C 361.88585,102.61919 363.41531,92.319191 362.7208,79.719794 C 361.86705,64.231728 357.42643,53.334857 348.68501,45.277298 C 343.23557,40.254184 339.63143,38.328767 333.02683,36.912334 L 327.95371,35.824345 L 318.72686,41.774188 C 305.68383,50.184846 295.53604,55.56512 285.86167,59.199026 C 278.92065,61.806225 276.05585,62.343333 269,62.360337 C 261.18482,62.379171 259.77489,62.053727 251.5,58.320939 C 239.31703,52.825227 222.88074,47.624783 209,44.873936 C 193.8956,41.880588 168.1506,41.634904 154.53628,44.354191 C 142.57741,46.742825 128.99866,51.17036 117.02701,56.584604 C 109.19959,60.124593 106.72494,60.840291 104.85143,60.105923 C 103.55814,59.598987 98.675,54.807314 94,49.45776 C 74.264497,26.874631 51.851727,11.06351 42.796551,13.336215 C 41.440473,13.676568 36.892481,17.338188 32.689902,21.473146 C 26.467059,27.595862 24.219171,30.708904 20.578707,38.245627 C 14.459364,50.914286 12.564424,60.830212 13.273351,76.473412 C 14.674105,107.38245 29.344981,129.45166 53.818409,137.46481 C 61.797867,140.07746 62.069106,141.40041 57.666687,156.23443 C 48.784059,186.1646 46.604005,200.00778 46.601112,226.5 C 46.599156,244.41794 46.922725,248.9953 48.805793,257.68841 C 51.289826,269.15585 55.883543,282.8396 59.956262,290.9034 L 62.685315,296.30681 L 63.887916,291.53085 C 66.541505,280.99249 72.48934,272.46128 80.982733,267.01108 C 86.191729,263.66848 89.602574,263.39392 91.346615,266.17685 C 92.150876,267.46019 91.776109,268.99537 89.74963,272.71868 C 86.157139,279.31927 84.899587,285.62099 84.913042,296.95531 C 84.929922,311.17474 89.082265,328.13976 94.466006,335.98539 C 95.792472,337.91843 97.866284,342.2 99.074477,345.5 C 100.28267,348.8 101.32267,351.5729 101.3856,351.662 C 101.44852,351.7511 108.25,353.0181 116.5,354.47756 C 124.75,355.93701 131.85657,357.48068 132.29238,357.90794 C 132.72819,358.33519 132.46593,359.19835 131.70958,359.82606 C 130.66741,360.69099 127.14593,360.41247 117.1672,358.67585 C 108.06116,357.09111 104,356.733 104,357.51475 C 104,358.13648 105.98633,362.72628 108.41406,367.71433 L 112.82811,376.78349 L 119.34957,376.26001 C 126.81848,375.66048 129.22588,376.24779 128.37615,378.46215 C 127.9472,379.57999 126.32922,380 122.45203,380 C 119.51833,380 116.82091,380.48076 116.45775,381.06836 C 115.68048,382.326 124.41187,395.83708 126.52621,396.64843 C 127.32303,396.9542 129.34328,396.72738 131.01566,396.14438 C 134.58891,394.89874 137.0991,395.57817 136.32987,397.58276 C 136.03075,398.36224 135.41346,399 134.95811,399 C 134.50276,399 132.94004,399.4525 131.48541,400.00555 L 128.84062,401.0111 L 134.61842,407.5921 C 141.24135,415.13572 156.96396,428.64938 160.86609,430.1521 C 169.65694,433.53747 187.23674,433.51094 198.08216,430.09592 z M 173.17332,398.51596 C 155.23329,392.91735 152.70355,377.5748 168.39708,369.54883 C 173.44234,366.96859 175.57782,366.50732 184.05407,366.16687 C 197.04168,365.64522 203.55467,367.60049 210.21574,374.02091 C 214.49396,378.14457 215,379.0943 215,383 C 215,386.90234 214.49308,387.85628 210.24201,391.95377 C 204.05726,397.91508 197.69004,400.02262 186.13517,399.9331 C 181.38582,399.89631 175.55299,399.2586 173.17332,398.51596 z M 98.734467,261.91195 C 90.39643,259.94753 82,253.46014 82,248.98229 C 82,245.50224 83.919499,245.91222 86.458733,249.93463 C 89.464484,254.69605 92.204435,256.23621 101.3377,258.29828 C 108.80984,259.98531 109.52279,260.34509 108.54112,261.93347 C 107.77352,263.17547 104.06298,263.16733 98.734467,261.91195 z M 251.44814,241.47877 C 241.47659,231.01617 233.61484,227.86642 226.60122,231.52405 C 225.00689,232.35549 223.45711,232.79044 223.15727,232.4906 C 222.32651,231.65985 224.80514,213.01278 227.60616,199.0209 C 234.71022,163.53421 244.89632,150.8888 259.48882,159.44058 C 263.57026,161.83247 272.62906,171.46959 274.84488,175.77701 C 277.59788,181.12864 276.76428,210.68759 273.49904,223.5 C 270.87098,233.81215 262.22811,249.19867 259.20953,248.93895 C 258.81929,248.90538 255.32666,245.5483 251.44814,241.47877 z M 255.92742,189.36514 C 258.1643,186.52141 258.58232,182.9566 257.02101,180.03926 C 256.32786,178.7441 256.42519,177.89202 257.35435,177.12088 C 258.38667,176.26413 258.66667,176.65707 258.66667,178.96259 C 258.66667,185.25535 265.18216,187.23128 267.80489,181.73391 C 270.6341,175.80374 264.85756,169.2853 260.57143,173.57143 C 259.14286,175 259,174.92022 259,172.69387 C 259,169.59537 256.70333,167.642 254.05031,168.48403 C 252.07393,169.11131 250.15646,173.48979 251.33987,174.67321 C 251.65891,174.99224 250.47545,176.22347 248.70997,177.40928 C 246.08637,179.17144 245.44432,180.32567 245.19518,183.72782 C 244.64662,191.21884 251.5974,194.86987 255.92742,189.36514 z M 133.5,230.46721 C 128.89305,226.68817 117.03702,221.219 111.82498,220.46854 C 106.29513,219.67232 101.20193,221.11776 96.959827,224.68726 C 95.315676,226.07072 93.320186,226.95311 92.525406,226.64812 C 87.407525,224.68421 80.211571,207.33203 81.40917,199.84265 C 83.139428,189.02222 88.895134,183.58313 99.690165,182.5673 C 113.75295,181.24396 120.2729,185.43028 127.49732,200.42167 C 131.80759,209.36589 139,228.85911 139,231.59678 C 139,233.67738 136.88357,233.24272 133.5,230.46721 z M 116.4433,211.77749 C 118.59136,208.71071 118.39075,204.76647 115.92742,201.63486 C 111.99742,196.63867 105.6,199.65242 105.6,206.5 C 105.6,213.13034 112.9799,216.72218 116.4433,211.77749 z M 104.8,202.8 C 106.90296,200.69704 106.27605,194.30676 103.79638,192.56993 C 101.92236,191.25732 101.28667,191.22842 99.546379,192.37671 C 97.184095,193.93541 96.36292,198.94109 97.975271,201.95379 C 99.185053,204.21429 102.92232,204.67768 104.8,202.8 z M 148.7848,230.09914 C 143.93095,225.81261 139.53907,217.87977 133.00683,201.60016 C 126.54937,185.50691 123.38378,180.36255 117.63952,176.62689 C 105.79454,168.92376 86.042126,175.4465 78.656652,189.5 L 77.080075,192.5 L 77.040038,187.92515 C 77.018017,185.40899 78.100321,180.11523 79.445157,176.16125 C 84.516674,161.25037 90.743891,153.45156 99.546353,150.98702 C 105.64807,149.27865 117.33069,150.15719 123.21723,152.76708 C 129.73689,155.65769 137.08334,162.83463 140.56359,169.71322 C 143.37721,175.27424 143.50727,176.15298 144.0834,193.49381 C 144.72425,212.78278 146.10814,219.25891 151.61735,228.75 C 154.48967,233.69835 153.43122,234.20248 148.7848,230.09914 z M 209,201.55647 C 209,201.28429 210.0125,199.13523 211.25,196.78079 C 213.36206,192.76245 213.53065,190.96731 214,167.5 C 214.49051,142.97471 214.55089,142.39142 217.18006,136.78193 C 223.03298,124.29436 235.59778,115.11949 248.06826,114.22723 C 258.2405,113.49941 263.16879,114.59713 269.89537,119.08897 C 276.11661,123.24335 281.81583,130.58106 283.80694,137 C 285.28962,141.7799 286.50912,161 285.32971,161 C 284.81935,161 283.87159,159.5375 283.22358,157.75 C 281.428,152.79699 276.25621,147.12198 269.64218,142.84713 C 261.69314,137.70942 256.89526,136.45912 250.64509,137.89662 C 240.28694,140.27892 236.87571,144.96895 229.51247,166.95141 C 222.44774,188.04271 217.3529,197.73191 211.82382,200.59111 C 210.27072,201.39425 209,201.82866 209,201.55647 z M 301.42276,130.74615 C 301.36242,120.39867 300.85463,115.63993 299.10231,109 C 296.6603,99.746675 290.82815,86.498861 286.13551,79.545683 C 282.99998,74.899702 283.34592,74 288.2679,74 C 292.96246,74 304.02232,70.571771 312.6223,66.450855 C 319.31112,63.245721 323.40676,60.44309 327.97553,55.944709 L 334.20647,49.809764 L 339.44085,53.414824 C 363.54454,70.015671 357.16921,101.41697 324.23899,128.29065 C 317.36386,133.9013 303.10596,144.00311 302.07194,143.99615 C 301.75737,143.99403 301.46524,138.03153 301.42276,130.74615 z M 41.610522,119.82669 C 15.530187,95.26393 10.339697,77.221793 22.09766,52 C 24.994775,45.785452 35.331889,29.619033 40.197281,23.693644 L 42.501605,20.887288 L 47.745513,25.941742 C 50.629661,28.721692 57.3793,34.246306 62.74471,38.218663 C 74.38725,46.838381 80.739908,52.983444 84.262347,59.033137 C 89.038885,67.236711 89.003282,67.380046 79.426983,78.5 C 62.046765,98.681827 55.092241,110.97858 54.228122,123.05577 C 53.954851,126.8751 53.434515,130 53.071821,130 C 52.709127,130 47.551542,125.42201 41.610522,119.82669 z "
     id="path2161" />
</svg>
