<?xml version="1.0" encoding="UTF-8" standalone="no"?>
<!-- Created with Inkscape (http://www.inkscape.org/) -->

<svg
   width="2.2386303in"
   height="2.1011314in"
   viewBox="0 0 56.86121 53.368739"
   version="1.1"
   id="svg1"
   inkscape:version="1.3 (0e150ed, 2023-07-21)"
   sodipodi:docname="big-bridge-arts-logos.svg"
   xml:space="preserve"
   xmlns:inkscape="http://www.inkscape.org/namespaces/inkscape"
   xmlns:sodipodi="http://sodipodi.sourceforge.net/DTD/sodipodi-0.dtd"
   xmlns:xlink="http://www.w3.org/1999/xlink"
   xmlns="http://www.w3.org/2000/svg"
   xmlns:svg="http://www.w3.org/2000/svg"><sodipodi:namedview
     id="namedview1"
     pagecolor="#ffffff"
     bordercolor="#666666"
     borderopacity="1.0"
     inkscape:showpageshadow="2"
     inkscape:pageopacity="0.0"
     inkscape:pagecheckerboard="0"
     inkscape:deskcolor="#d1d1d1"
     inkscape:document-units="in"
     inkscape:zoom="2.119212"
     inkscape:cx="-626.64803"
     inkscape:cy="-14.864016"
     inkscape:window-width="1440"
     inkscape:window-height="758"
     inkscape:window-x="0"
     inkscape:window-y="25"
     inkscape:window-maximized="0"
     inkscape:current-layer="layer2"
     showguides="true"
     inkscape:lockguides="true" /><defs
     id="defs1" /><g
     inkscape:groupmode="layer"
     id="layer2"
     inkscape:label="Circle Logo"
     transform="translate(202.27927,30.110745)"><ellipse
       style="fill:#220b21;fill-opacity:1;fill-rule:evenodd;stroke:none;stroke-width:0.539063;stroke-linecap:round;stroke-linejoin:round"
       id="circle9"
       cx="66.661049"
       cy="153.71561"
       transform="matrix(-0.00823359,-0.9999661,-0.99992844,0.01196302,0,0)"
       rx="20.638575"
       ry="20.646742" /><circle
       style="display:none;fill:#220b21;fill-opacity:1;fill-rule:evenodd;stroke:none;stroke-width:0.427939;stroke-linecap:round;stroke-linejoin:round"
       id="path9"
       cx="-103.74076"
       cy="95.3554"
       r="14.781314"
       transform="rotate(89.653786)" /><text
       xml:space="preserve"
       style="font-style:normal;font-variant:normal;font-weight:500;font-stretch:normal;font-size:5px;line-height:3.36px;font-family:Poppins;-inkscape-font-specification:'Poppins Medium';text-align:center;letter-spacing:0.0846667px;text-anchor:middle;stroke-width:0.419751"
       id="text6"><textPath
         xlink:href="#circle9"
         startOffset="50%"
         id="textPath12"
         style="font-style:normal;font-variant:normal;font-weight:500;font-stretch:normal;font-size:5px;line-height:3.36px;font-family:Poppins;-inkscape-font-specification:'Poppins Medium';letter-spacing:0.0846667px;fill:#75cbd1;fill-opacity:1;stroke-width:0.419751">Community Art Events</textPath></text><text
       xml:space="preserve"
       style="font-size:7.40833px;line-height:444.5px;font-family:Oswald;-inkscape-font-specification:Oswald;text-align:center;text-anchor:middle;fill:#d175cb;fill-opacity:1;stroke:none;stroke-width:0.419751;stroke-dasharray:none;stroke-opacity:1"
       id="text2"
       transform="translate(-57.754587,38.519328)"><textPath
         xlink:href="#path9"
         startOffset="50%"
         id="textPath11"
         style="font-style:normal;font-variant:normal;font-weight:bold;font-stretch:normal;font-family:Oswald;-inkscape-font-specification:'Oswald Bold'">Big Bridge Arts</textPath></text><text
       xml:space="preserve"
       style="font-style:normal;font-variant:normal;font-weight:500;font-stretch:normal;font-size:4.23333px;line-height:2.8448px;font-family:Poppins;-inkscape-font-specification:'Poppins Medium';text-align:center;letter-spacing:0.0846667px;text-anchor:middle;stroke-width:0.419751"
       id="text22"
       transform="translate(-6.4457004,92.818086)"><textPath
         xlink:href="#circle9"
         startOffset="50%"
         id="textPath16"
         style="font-style:normal;font-variant:normal;font-weight:500;font-stretch:normal;font-size:4.23333px;line-height:2.8448px;font-family:Poppins;-inkscape-font-specification:'Poppins Medium';letter-spacing:0.0846667px;fill:#75cbd1;fill-opacity:1;stroke-width:0.419751">Designs and Dry Goods</textPath></text><text
       xml:space="preserve"
       style="font-size:7.40833px;line-height:444.5px;font-family:Oswald;-inkscape-font-specification:Oswald;text-align:center;text-anchor:middle;fill:#d175cb;fill-opacity:1;stroke:none;stroke-width:0.419751;stroke-dasharray:none;stroke-opacity:1"
       id="text23"><textPath
         xlink:href="#path9"
         startOffset="50%"
         id="textPath23"><tspan
           id="tspan23"
           style="font-style:normal;font-variant:normal;font-weight:bold;font-stretch:normal;font-family:Oswald;-inkscape-font-specification:'Oswald Bold';fill:#d175cb;fill-opacity:1;stroke:none;stroke-width:0.419751;stroke-dasharray:none;stroke-opacity:1">Back and Forth</tspan></textPath></text><path
       id="path4"
       style="fill:#4ac2c5;fill-opacity:1;fill-rule:evenodd;stroke:#000000;stroke-width:1;stroke-linecap:round;stroke-dasharray:none;stroke-opacity:1;paint-order:stroke fill markers"
       inkscape:transform-center-x="-4.7418752"
       inkscape:transform-center-y="0.25786335"
       d="m -194.16307,-28.151701 c 4.07036,-6.423123 10.08625,10.342483 14.93198,11.705542 4.84573,1.363059 9.72319,-18.855149 20.33623,-10.749461 7.79959,5.956918 -10.07781,5.771453 -6.60379,15.350267 3.02823,8.3496479 19.84663,-0.478739 19.5776,11.10527891 -0.26861,11.56604809 -11.75233,-3.16537441 -19.90665,-0.28293501 -13.03317,4.6070454 10.21739,21.5064981 -5.80944,23.7281611 -8.50901,1.179532 -2.29684,-17.3734328 -8.80731,-19.8693031 -7.1403,-2.73732616 -20.01139,13.9195211 -21.26134,2.234953 -1.24394,-11.628365 13.11683,-3.8123878 16.11562,-16.0332599 1.53619,-6.260381 -15.63045,-6.052275 -8.5729,-17.189243 z"
       sodipodi:nodetypes="sssssssssss" /><path
       id="path5"
       style="fill:#4ac2c5;fill-opacity:1;fill-rule:evenodd;stroke:#007800;stroke-width:1;stroke-linecap:round;stroke-dasharray:none;stroke-opacity:1;paint-order:stroke fill markers"
       inkscape:transform-center-x="-3.9147169"
       inkscape:transform-center-y="0.21276921"
       d="m -192.52417,-25.395196 c 1.67696,-3.074793 8.21076,9.35659 13.80973,10.505619 6.89338,1.41467 11.65019,-16.091697 17.84774,-10.563837 2.25451,2.010897 -9.80544,3.869819 -6.51073,14.36007 2.58459,8.2292484 18.76362,4.8062992 18.70386,9.5867767 -0.0871,6.9684684 -10.93915,-4.7640362 -20.24617,-1.9276614 -10.91622,3.32678827 3.19479,21.8691467 -1.40765,23.6023987 -4.17371,1.571792 -1.32145,-16.1124311 -9.38875,-19.1477109 -8.76679,-3.2984599 -16.71911,8.0732879 -17.5526,1.844112 -0.92369,-6.9034329 10.60083,-1.3815746 13.30448,-13.2294181 1.49461,-6.549648 -12.09015,-8.557477 -8.55991,-15.030349 z"
       sodipodi:nodetypes="sssssssssss" /><path
       id="path6"
       style="fill:#aa81d6;fill-opacity:1;fill-rule:evenodd;stroke:#000000;stroke-width:1;stroke-linecap:round;stroke-dasharray:none;stroke-opacity:1;paint-order:stroke fill markers"
       inkscape:transform-center-x="-3.9147169"
       inkscape:transform-center-y="0.21276921"
       d="m -192.52417,-25.395196 c 2.17636,-4.947541 8.21076,9.35659 13.80973,10.505619 6.89338,1.41467 9.50055,-16.871358 17.84774,-10.563837 4.43491,3.351224 -9.80544,3.869819 -6.51073,14.36007 2.58459,8.2292484 18.2681,2.328561 18.70386,9.5867767 0.49402,8.2286341 -10.88937,-4.5952219 -20.24617,-1.9276614 -9.91742,2.8273888 4.93488,21.5950047 -1.40765,23.6023987 -7.86765,2.490088 -1.32145,-16.1124311 -9.38875,-19.1477109 -8.76679,-3.2984599 -18.09246,10.5702849 -18.92595,2.0938117 -0.68157,-6.9315253 12.59843,-2.25552364 14.67783,-13.4791178 1.22382,-6.605604 -11.52865,-8.281479 -8.55991,-15.030349 z"
       sodipodi:nodetypes="sssssssssss" /><path
       id="path14"
       style="fill:#81d6cc;fill-opacity:1;fill-rule:evenodd;stroke:#000000;stroke-width:1;stroke-linecap:round;stroke-dasharray:none;stroke-opacity:1;paint-order:stroke fill markers"
       inkscape:transform-center-x="-2.790242"
       inkscape:transform-center-y="0.16636065"
       d="m -189.89439,-22.206289 c 0.35321,-2.481371 5.10373,8.551763 11.34118,8.838412 7.52841,0.345977 10.03841,-12.531095 14.84354,-11.006379 3.93288,1.247944 -9.36106,4.523945 -6.76302,13.974589 1.77408,6.4534182 19.18705,5.1340256 19.69864,8.369684 0.73472,4.6468835 -14.53884,-6.8461646 -20.79793,-2.3811543 -6.67869,4.7643371 2.99568,21.8010923 -0.37906,20.7016063 -1.97604,-0.643791 -0.44248,-14.8453298 -7.31614,-17.21856267 -6.38976,-2.20615943 -18.1827,7.97518487 -16.38108,2.31582837 0.90308,-2.8368026 11.60477,0.4533349 13.3532,-11.2178031 1.05432,-7.0378226 -8.1965,-8.1810396 -7.59933,-12.3762206 z"
       sodipodi:nodetypes="sssssssssss" /></g></svg>
