<?xml version="1.0" encoding="UTF-8" standalone="no"?>
<!-- Created with Inkscape (http://www.inkscape.org/) -->

<svg
   width="141.1111mm"
   height="140.25401mm"
   viewBox="0 0 141.1111 140.25401"
   version="1.1"
   id="svg1"
   inkscape:version="1.3 (0e150ed, 2023-07-21)"
   sodipodi:docname="facebook.svg"
   xmlns:inkscape="http://www.inkscape.org/namespaces/inkscape"
   xmlns:sodipodi="http://sodipodi.sourceforge.net/DTD/sodipodi-0.dtd"
   xmlns="http://www.w3.org/2000/svg"
   xmlns:svg="http://www.w3.org/2000/svg">
  <sodipodi:namedview
     id="namedview1"
     pagecolor="#ffffff"
     bordercolor="#666666"
     borderopacity="1.0"
     inkscape:showpageshadow="2"
     inkscape:pageopacity="0.0"
     inkscape:pagecheckerboard="0"
     inkscape:deskcolor="#d1d1d1"
     inkscape:document-units="mm"
     inkscape:zoom="0.2102413"
     inkscape:cx="394.78447"
     inkscape:cy="561.25984"
     inkscape:window-width="1440"
     inkscape:window-height="693"
     inkscape:window-x="0"
     inkscape:window-y="25"
     inkscape:window-maximized="0"
     inkscape:current-layer="layer1" />
  <defs
     id="defs1" />
  <g
     inkscape:label="Layer 1"
     inkscape:groupmode="layer"
     id="layer1"
     transform="translate(-33.866666,-77.258337)">
    <path
       d="m 174.97778,147.81394 c 0,-38.96683 -31.58878,-70.555607 -70.55551,-70.555607 -38.966826,0 -70.555603,31.588777 -70.555603,70.555607 0,35.21626 25.801119,64.40539 59.531265,69.6984 V 168.20888 H 75.483465 v -20.39494 h 17.914467 v -15.54427 c 0,-17.68306 10.533418,-27.45053 26.649848,-27.45053 7.71943,0 15.79377,1.378 15.79377,1.378 v 17.36329 h -8.89692 c -8.76474,0 -11.49801,5.43874 -11.49801,11.01845 v 13.23506 h 19.56811 l -3.12818,20.39494 h -16.44004 v 49.30346 c 33.73015,-5.29301 59.53127,-34.48214 59.53127,-69.6984"
       fill="#1877f2"
       id="path1"
       style="fill:#aa81d6;fill-opacity:1;stroke-width:0.103353"
       inkscape:export-filename="path1.svg"
       inkscape:export-xdpi="300"
       inkscape:export-ydpi="300" />
    <path
       d="m 131.88655,168.20888 3.12818,-20.39494 h -19.56822 v -13.23516 c 0,-5.57961 2.73338,-11.01835 11.49812,-11.01835 h 8.89692 v -17.36329 c 0,0 -8.07434,-1.378 -15.79377,-1.378 -16.11643,0 -26.649848,9.76747 -26.649848,27.45053 v 15.54427 H 75.483465 v 20.39494 h 17.914467 v 49.30346 a 71.086635,71.086635 0 0 0 11.024338,0.8571 c 3.75047,0 7.43211,-0.29352 11.02424,-0.8571 v -49.30346 h 16.44004"
       fill="#fff"
       id="path2"
       style="fill:#ffffff;fill-opacity:0;stroke-width:0.103353" />
  </g>
</svg>
